<svg xmlns="http://www.w3.org/2000/svg"  viewBox="0 0 50 50" width="50px" height="50px" baseProfile="basic"><polygon fill="#57e66f" points="41,20.38 41,38.86 30,45.21 8,32.51 8,14.03 16,9.41 16,8.26 20,5.95 23,4.22 30,8.26 33,13.45 33,15.76"/><polygon fill="#61ff7b" points="30,26.732 30,45.207 8,32.506 8,14.03"/><polygon fill="#44b356" points="30,26.732 30,45.207 40.998,38.856 41,20.381"/><polygon fill="#a8a8a8" points="20,5.947 23,4.215 30,8.257 27,9.989"/><rect width="3.464" height="6" x="28.268" y="8.721" fill="#8c8c8c" transform="rotate(-30 30 11.722)"/><polygon fill="#737373" points="30,22.113 30,15.185 33,13.453 33,20.381"/><polygon fill="#737373" points="19,15.762 19,11.144 21,9.989 22,10.566 22,14.03"/><polygon fill="#ccc" points="27,9.989 20,5.947 16,8.257 16,14.03 19,15.762 19,11.144 21,9.989 25,12.298 27,15.762 27,20.381 30,22.113 30,15.185"/><polygon fill="#ccc" points="12,25.577 12,27.887 14,29.041 14,26.732"/><polygon fill="#a8a8a8" points="12,25.577 13,25 15,26.155 14,26.732"/><polygon fill="#737373" points="15,26.155 15,28.464 14,29.041 14,26.732"/><polygon fill="#ccc" points="17,28.464 17,30.774 19,31.928 19,29.619"/><polygon fill="#a8a8a8" points="17,28.464 18,27.887 20,29.041 19,29.619"/><polygon fill="#737373" points="20,29.041 20,31.351 19,31.928 19,29.619"/><polygon fill="#ccc" points="22,31.351 22,33.66 24,34.815 24,32.506"/><polygon fill="#a8a8a8" points="22,31.351 23,30.774 25,31.928 24,32.506"/><polygon fill="#737373" points="25,31.928 25,34.238 24,34.815 24,32.506"/></svg>